# Blender v2.92.0 OBJ File: 'tetrahedron.blend'
# www.blender.org
mtllib tetrahedron_rounded.mtl
o Solid
v -0.005333 0.064915 0.000000
v 0.002667 0.064915 0.004619
v 0.002667 0.064915 -0.004619
v -0.004945 0.065578 0.001307
v -0.004316 0.066071 0.002476
v -0.003469 0.066375 0.003460
v -0.002438 0.066477 0.004223
v -0.004945 0.065578 -0.001307
v -0.004211 0.066368 0.000030
v -0.003525 0.067124 0.001206
v -0.002693 0.067639 0.002198
v -0.001705 0.067829 0.002945
v -0.004316 0.066071 -0.002476
v -0.003480 0.067084 -0.001153
v -0.002720 0.068024 0.000011
v -0.001920 0.068663 0.001001
v -0.001006 0.068905 0.001740
v -0.003469 0.066375 -0.003460
v -0.002657 0.067608 -0.002168
v -0.001911 0.068655 -0.000994
v -0.001206 0.069263 0.000000
v -0.000412 0.069458 0.000713
v 0.000000 0.069496 0.000000
v 0.003605 0.065578 0.003629
v 0.004302 0.066071 0.002500
v 0.004731 0.066375 0.001274
v 0.004876 0.066477 0.000000
v 0.001340 0.065578 0.004936
v 0.002132 0.066368 0.003632
v 0.002807 0.067124 0.002449
v 0.003250 0.067639 0.001233
v 0.003403 0.067829 0.000004
v 0.000014 0.066071 0.004975
v 0.000741 0.067084 0.003590
v 0.001370 0.068024 0.002350
v 0.001827 0.068663 0.001162
v 0.002010 0.068905 0.000001
v -0.001262 0.066375 0.004734
v -0.000549 0.067608 0.003385
v 0.000095 0.068655 0.002152
v 0.000603 0.069263 0.001044
v 0.000823 0.069458 0.000000
v 0.001340 0.065578 -0.004936
v 0.000014 0.066071 -0.004975
v -0.001262 0.066375 -0.004734
v -0.002438 0.066477 -0.004223
v 0.003605 0.065578 -0.003629
v 0.002079 0.066368 -0.003662
v 0.000718 0.067124 -0.003656
v -0.000557 0.067639 -0.003431
v -0.001698 0.067829 -0.002949
v 0.004302 0.066071 -0.002500
v 0.002739 0.067084 -0.002437
v 0.001350 0.068024 -0.002361
v 0.000093 0.068663 -0.002163
v -0.001004 0.068905 -0.001741
v 0.004731 0.066375 -0.001274
v 0.003206 0.067608 -0.001217
v 0.001816 0.068655 -0.001158
v 0.000603 0.069263 -0.001044
v -0.000412 0.069458 -0.000713
v 0.062091 -0.019124 0.004619
v 0.059425 -0.026667 0.000000
v 0.062091 -0.019124 -0.004619
v 0.062274 -0.020596 0.004936
v 0.062297 -0.022011 0.004975
v 0.062158 -0.023315 0.004734
v 0.061862 -0.024457 0.004223
v 0.063029 -0.018461 0.003629
v 0.063266 -0.020162 0.003662
v 0.063524 -0.021698 0.003656
v 0.063585 -0.023072 0.003431
v 0.063384 -0.024211 0.002949
v 0.063726 -0.017968 0.002500
v 0.064161 -0.019779 0.002437
v 0.064584 -0.021402 0.002361
v 0.064767 -0.022800 0.002163
v 0.064629 -0.023915 0.001741
v 0.064155 -0.017665 0.001274
v 0.064810 -0.019513 0.001217
v 0.065334 -0.021173 0.001158
v 0.065503 -0.022519 0.001044
v 0.065348 -0.023541 0.000713
v 0.065521 -0.023165 0.000000
v 0.060179 -0.026522 -0.001307
v 0.060854 -0.026092 -0.002476
v 0.061422 -0.025395 -0.003460
v 0.061862 -0.024457 -0.004223
v 0.060179 -0.026522 0.001307
v 0.061169 -0.026093 -0.000030
v 0.062110 -0.025698 -0.001206
v 0.062873 -0.025086 -0.002198
v 0.063382 -0.024217 -0.002945
v 0.060854 -0.026092 0.002476
v 0.062088 -0.025643 0.001153
v 0.063227 -0.025239 -0.000011
v 0.064096 -0.024698 -0.001001
v 0.064629 -0.023917 -0.001740
v 0.061422 -0.025395 0.003460
v 0.062856 -0.025041 0.002168
v 0.064092 -0.024686 0.000994
v 0.064900 -0.024225 0.000000
v 0.065348 -0.023541 -0.000713
v 0.063029 -0.018461 -0.003629
v 0.063726 -0.017968 -0.002500
v 0.064155 -0.017665 -0.001274
v 0.064300 -0.017562 -0.000000
v 0.062274 -0.020596 -0.004936
v 0.063283 -0.020113 -0.003632
v 0.064220 -0.019728 -0.002449
v 0.064854 -0.019482 -0.001233
v 0.065084 -0.019402 -0.000004
v 0.062297 -0.022011 -0.004975
v 0.063495 -0.021663 -0.003590
v 0.064590 -0.021383 -0.002350
v 0.065345 -0.021165 -0.001162
v 0.065634 -0.021073 -0.000001
v 0.062158 -0.023315 -0.004734
v 0.063558 -0.023053 -0.003385
v 0.064760 -0.022796 -0.002152
v 0.065503 -0.022519 -0.001044
v 0.065760 -0.022376 0.000000
v -0.035046 -0.019124 -0.051463
v -0.027046 -0.019124 -0.056082
v -0.029712 -0.026667 -0.051463
v -0.034657 -0.018461 -0.052770
v -0.034028 -0.017968 -0.053939
v -0.033181 -0.017665 -0.054923
v -0.032150 -0.017562 -0.055686
v -0.035412 -0.020596 -0.051463
v -0.034787 -0.020113 -0.052989
v -0.034231 -0.019728 -0.054392
v -0.033495 -0.019482 -0.055549
v -0.032546 -0.019402 -0.056363
v -0.035457 -0.022011 -0.051463
v -0.034857 -0.021663 -0.053193
v -0.034330 -0.021383 -0.054762
v -0.033679 -0.021165 -0.056009
v -0.032818 -0.021073 -0.056840
v -0.035179 -0.023315 -0.051463
v -0.034711 -0.023053 -0.053351
v -0.034243 -0.022796 -0.055008
v -0.033656 -0.022519 -0.056205
v -0.032880 -0.022376 -0.056950
v -0.032761 -0.023165 -0.056743
v -0.026862 -0.020596 -0.056399
v -0.026840 -0.022011 -0.056438
v -0.026979 -0.023315 -0.056197
v -0.027274 -0.024457 -0.055686
v -0.028372 -0.018461 -0.056399
v -0.028461 -0.020162 -0.056621
v -0.028596 -0.021698 -0.056841
v -0.028821 -0.023072 -0.056782
v -0.029138 -0.024211 -0.056367
v -0.029698 -0.017968 -0.056438
v -0.029970 -0.019779 -0.056783
v -0.030247 -0.021402 -0.057112
v -0.030510 -0.022800 -0.057171
v -0.030807 -0.023915 -0.056841
v -0.030974 -0.017665 -0.056197
v -0.031351 -0.019513 -0.056736
v -0.031664 -0.021173 -0.057160
v -0.031847 -0.022519 -0.057250
v -0.032057 -0.023541 -0.056950
v -0.031222 -0.026522 -0.051463
v -0.032571 -0.026092 -0.051463
v -0.033707 -0.025395 -0.051463
v -0.034588 -0.024457 -0.051463
v -0.028958 -0.026522 -0.052770
v -0.030611 -0.026093 -0.052959
v -0.032100 -0.025698 -0.053185
v -0.033340 -0.025086 -0.053351
v -0.034241 -0.024217 -0.053418
v -0.028283 -0.026092 -0.053939
v -0.030045 -0.025643 -0.054346
v -0.031623 -0.025239 -0.054751
v -0.032915 -0.024698 -0.055008
v -0.033822 -0.023917 -0.055100
v -0.027715 -0.025395 -0.054923
v -0.029550 -0.025041 -0.055519
v -0.031185 -0.024686 -0.056002
v -0.032450 -0.024225 -0.056205
v -0.033292 -0.023541 -0.056237
v -0.027046 -0.019124 0.056082
v -0.035046 -0.019124 0.051463
v -0.029712 -0.026667 0.051463
v -0.028372 -0.018461 0.056399
v -0.029698 -0.017968 0.056438
v -0.030974 -0.017665 0.056197
v -0.032150 -0.017562 0.055686
v -0.026862 -0.020596 0.056399
v -0.028496 -0.020113 0.056621
v -0.029989 -0.019728 0.056841
v -0.031359 -0.019482 0.056782
v -0.032539 -0.019402 0.056367
v -0.026840 -0.022011 0.056438
v -0.028638 -0.021663 0.056783
v -0.030260 -0.021383 0.057112
v -0.031666 -0.021165 0.057171
v -0.032816 -0.021073 0.056841
v -0.026979 -0.023315 0.056197
v -0.028848 -0.023053 0.056736
v -0.030517 -0.022796 0.057160
v -0.031847 -0.022519 0.057250
v -0.032880 -0.022376 0.056950
v -0.032761 -0.023165 0.056743
v -0.035412 -0.020596 0.051463
v -0.035457 -0.022011 0.051463
v -0.035179 -0.023315 0.051463
v -0.034588 -0.024457 0.051463
v -0.034657 -0.018461 0.052770
v -0.034804 -0.020162 0.052959
v -0.034928 -0.021698 0.053185
v -0.034764 -0.023072 0.053351
v -0.034246 -0.024211 0.053418
v -0.034028 -0.017968 0.053939
v -0.034191 -0.019779 0.054346
v -0.034337 -0.021402 0.054751
v -0.034257 -0.022800 0.055008
v -0.033823 -0.023915 0.055100
v -0.033181 -0.017665 0.054923
v -0.033459 -0.019513 0.055519
v -0.033670 -0.021173 0.056002
v -0.033656 -0.022519 0.056205
v -0.033292 -0.023541 0.056237
v -0.028958 -0.026522 0.052770
v -0.028283 -0.026092 0.053939
v -0.027715 -0.025395 0.054923
v -0.027274 -0.024457 0.055686
v -0.031222 -0.026522 0.051463
v -0.030558 -0.026093 0.052989
v -0.030010 -0.025698 0.054392
v -0.029533 -0.025086 0.055549
v -0.029141 -0.024217 0.056363
v -0.032571 -0.026092 0.051463
v -0.032043 -0.025643 0.053193
v -0.031604 -0.025239 0.054762
v -0.031181 -0.024698 0.056009
v -0.030807 -0.023917 0.056840
v -0.033707 -0.025395 0.051463
v -0.033305 -0.025041 0.053351
v -0.032906 -0.024686 0.055008
v -0.032450 -0.024225 0.056205
v -0.032057 -0.023541 0.056950
vn 0.4460 0.4521 0.7725
vn 0.3815 0.2698 0.8841
vn 0.5749 0.2698 0.7725
vn 0.4460 0.4521 -0.7725
vn 0.5749 0.2698 -0.7725
vn 0.3815 0.2698 -0.8841
vn 0.1289 -0.9916 0.0000
vn -0.0645 -0.9916 0.1116
vn -0.0645 -0.9916 -0.1116
vn -0.8919 0.4521 0.0000
vn -0.8341 0.5416 0.1040
vn -0.7491 0.6624 -0.0071
vn -0.8290 0.5493 -0.1050
vn -0.7489 0.6070 0.2658
vn -0.7051 0.7013 0.1050
vn -0.5993 0.6506 0.4664
vn -0.5768 0.7512 0.3209
vn -0.3668 0.6695 0.6459
vn -0.3042 0.7780 0.5496
vn -0.6995 0.7052 -0.1154
vn -0.7421 0.6176 -0.2603
vn -0.6907 0.7230 -0.0126
vn -0.5624 0.8042 0.1923
vn -0.2506 0.8569 0.4504
vn -0.5856 0.7486 -0.3110
vn -0.6004 0.6574 -0.4553
vn -0.5734 0.7950 -0.1978
vn -0.4368 0.8995 -0.0017
vn -0.1379 0.9604 0.2420
vn -0.3239 0.7780 -0.5383
vn -0.3759 0.6695 -0.6406
vn -0.2647 0.8569 -0.4422
vn -0.1406 0.9604 -0.2404
vn 0.0000 1.0000 0.0000
vn 0.5072 0.5416 0.6704
vn 0.3684 0.6624 0.6523
vn 0.3235 0.5493 0.7704
vn 0.6047 0.6070 0.5156
vn 0.4435 0.7013 0.5581
vn 0.7036 0.6506 0.2858
vn 0.5663 0.7512 0.3390
vn 0.7428 0.6695 -0.0052
vn 0.6281 0.7780 -0.0113
vn 0.2498 0.7052 0.6635
vn 0.1456 0.6176 0.7729
vn 0.3345 0.7230 0.6045
vn 0.4477 0.8042 0.3909
vn 0.5153 0.8569 -0.0081
vn 0.0234 0.7486 0.6626
vn -0.0941 0.6574 0.7476
vn 0.1154 0.7950 0.5954
vn 0.2169 0.8995 0.3791
vn 0.2785 0.9604 -0.0016
vn 0.3270 0.5416 -0.7744
vn 0.3807 0.6624 -0.6452
vn 0.5054 0.5493 -0.6654
vn 0.1442 0.6070 -0.7815
vn 0.2615 0.7013 -0.6631
vn -0.1043 0.6506 -0.7523
vn 0.0104 0.7512 -0.6600
vn 0.4497 0.7052 -0.5481
vn 0.5965 0.6176 -0.5126
vn 0.3563 0.7230 -0.5919
vn 0.1146 0.8042 -0.5831
vn 0.5621 0.7486 -0.3516
vn 0.6945 0.6574 -0.2922
vn 0.4580 0.7950 -0.3977
vn 0.2199 0.8995 -0.3774
vn 0.6196 0.1277 0.7744
vn 0.7514 0.1382 0.6452
vn 0.6864 0.2935 0.6654
vn 0.6203 -0.0663 0.7815
vn 0.7483 0.0128 0.6631
vn 0.5786 -0.3152 0.7523
vn 0.7117 -0.2405 0.6600
vn 0.5059 -0.5776 0.6406
vn 0.6256 -0.5647 0.5383
vn 0.8148 0.1889 0.5481
vn 0.7811 0.3565 0.5126
vn 0.8004 0.0949 0.5919
vn 0.7964 -0.1600 0.5831
vn 0.7197 -0.5352 0.4422
vn 0.8931 0.2805 0.3516
vn 0.8513 0.4357 0.2922
vn 0.9022 0.1668 0.3977
vn 0.9214 -0.0926 0.3774
vn 0.8586 -0.4527 0.2404
vn 0.9429 0.3328 0.0113
vn 0.8788 0.4771 0.0052
vn 0.9797 0.2002 0.0081
vn 0.9983 -0.0576 0.0016
vn 0.9428 -0.3333 0.0000
vn 0.2326 -0.9670 -0.1040
vn 0.3748 -0.9271 0.0071
vn 0.2415 -0.9647 0.1050
vn 0.3226 -0.9084 -0.2658
vn 0.4261 -0.8985 -0.1050
vn 0.4136 -0.7819 -0.4664
vn 0.5159 -0.7942 -0.3209
vn 0.5090 -0.5690 -0.6459
vn 0.6322 -0.5462 -0.5496
vn 0.4317 -0.8946 0.1154
vn 0.3348 -0.9056 0.2603
vn 0.4514 -0.8922 0.0126
vn 0.5708 -0.7983 -0.1923
vn 0.7244 -0.5219 -0.4504
vn 0.5105 -0.8016 0.3110
vn 0.4197 -0.7851 0.4553
vn 0.5585 -0.8056 0.1978
vn 0.7025 -0.7117 0.0017
vn 0.8596 -0.4501 -0.2420
vn 0.6797 0.2976 -0.6704
vn 0.7473 0.1265 -0.6523
vn 0.6257 0.1219 -0.7704
vn 0.7738 0.3678 -0.5156
vn 0.8090 0.1844 -0.5581
vn 0.8479 0.4465 -0.2858
vn 0.8970 0.2835 -0.3390
vn 0.7481 0.0005 -0.6635
vn 0.6308 -0.0685 -0.7729
vn 0.7931 0.0743 -0.6045
vn 0.9074 0.1540 -0.3909
vn 0.7136 -0.2274 -0.6626
vn 0.5884 -0.3079 -0.7476
vn 0.7880 -0.1562 -0.5954
vn 0.9204 -0.0953 -0.3791
vn -0.9564 0.2698 -0.1116
vn -0.9204 0.2976 -0.2534
vn -0.9386 0.1265 -0.3210
vn -0.9801 0.1219 -0.1567
vn -0.8335 0.3678 -0.4123
vn -0.8878 0.1844 -0.4216
vn -0.6715 0.4465 -0.5914
vn -0.7421 0.2835 -0.6073
vn -0.4348 0.4771 -0.7637
vn -0.4616 0.3328 -0.8223
vn -0.9487 0.0005 -0.3161
vn -0.9847 -0.0685 -0.1598
vn -0.9201 0.0743 -0.3846
vn -0.7922 0.1540 -0.5904
vn -0.4828 0.2002 -0.8525
vn -0.9306 -0.2274 -0.2866
vn -0.9416 -0.3079 -0.1358
vn -0.9097 -0.1562 -0.3847
vn -0.7885 -0.0953 -0.6075
vn -0.4978 -0.0576 -0.8654
vn -0.7920 -0.5462 -0.2727
vn -0.8138 -0.5690 -0.1178
vn -0.7522 -0.5219 -0.4021
vn -0.6393 -0.4501 -0.6234
vn -0.4714 -0.3333 -0.8165
vn 0.3608 0.1277 -0.9238
vn 0.1830 0.1382 -0.9733
vn 0.2331 0.2934 -0.9271
vn 0.3666 -0.0663 -0.9280
vn 0.2001 0.0128 -0.9797
vn 0.3622 -0.3152 -0.8772
vn 0.2157 -0.2405 -0.9463
vn 0.3018 -0.5776 -0.7584
vn 0.1533 -0.5647 -0.8109
vn 0.0673 0.1889 -0.9797
vn 0.0533 0.3565 -0.9327
vn 0.1124 0.0949 -0.9891
vn 0.1068 -0.1600 -0.9813
vn 0.0231 -0.5352 -0.8444
vn -0.1420 0.2805 -0.9493
vn -0.1726 0.4357 -0.8834
vn -0.1067 0.1668 -0.9802
vn -0.1338 -0.0926 -0.9867
vn -0.2211 -0.4527 -0.8638
vn -0.2064 -0.9670 -0.1494
vn -0.1812 -0.9271 -0.3282
vn -0.0298 -0.9647 -0.2617
vn -0.3916 -0.9084 -0.1465
vn -0.3041 -0.8985 -0.3165
vn -0.6107 -0.7819 -0.1249
vn -0.5359 -0.7942 -0.2864
vn -0.1159 -0.8946 -0.4315
vn 0.0580 -0.9056 -0.4201
vn -0.2148 -0.8922 -0.3972
vn -0.4519 -0.7983 -0.3981
vn 0.0140 -0.8016 -0.5976
vn 0.1845 -0.7851 -0.5911
vn -0.1079 -0.8056 -0.5825
vn -0.3498 -0.7117 -0.6092
vn 0.2407 0.2976 0.9238
vn 0.1913 0.1265 0.9733
vn 0.3544 0.1219 0.9271
vn 0.0596 0.3678 0.9280
vn 0.0788 0.1844 0.9797
vn -0.1764 0.4465 0.8772
vn -0.1549 0.2835 0.9463
vn -0.4440 0.4771 0.7584
vn -0.4813 0.3328 0.8109
vn 0.2006 0.0005 0.9797
vn 0.3539 -0.0685 0.9327
vn 0.1269 0.0743 0.9891
vn -0.1152 0.1540 0.9813
vn -0.4969 0.2002 0.8444
vn 0.2171 -0.2274 0.9493
vn 0.3532 -0.3079 0.8834
vn 0.1216 -0.1562 0.9802
vn -0.1319 -0.0953 0.9867
vn -0.5005 -0.0576 0.8638
vn 0.1599 -0.5462 0.8223
vn 0.3048 -0.5690 0.7637
vn 0.0278 -0.5219 0.8525
vn -0.2202 -0.4501 0.8654
vn -0.4714 -0.3333 0.8165
vn -0.9564 0.2698 0.1116
vn -0.9805 0.1277 0.1494
vn -0.9344 0.1382 0.3282
vn -0.9194 0.2934 0.2617
vn -0.9870 -0.0663 0.1465
vn -0.9485 0.0128 0.3165
vn -0.9408 -0.3152 0.1249
vn -0.9274 -0.2405 0.2864
vn -0.8077 -0.5776 0.1178
vn -0.7789 -0.5647 0.2727
vn -0.8821 0.1889 0.4315
vn -0.8344 0.3565 0.4201
vn -0.9128 0.0949 0.3972
vn -0.9033 -0.1600 0.3981
vn -0.7428 -0.5352 0.4021
vn -0.7511 0.2805 0.5976
vn -0.6788 0.4357 0.5911
vn -0.7955 0.1668 0.5825
vn -0.7876 -0.0926 0.6092
vn -0.6375 -0.4527 0.6234
vn -0.0262 -0.9670 0.2534
vn -0.1936 -0.9271 0.3210
vn -0.2117 -0.9647 0.1567
vn 0.0689 -0.9084 0.4123
vn -0.1221 -0.8985 0.4216
vn 0.1971 -0.7819 0.5914
vn 0.0200 -0.7942 0.6073
vn -0.3158 -0.8946 0.3161
vn -0.3929 -0.9056 0.1598
vn -0.2366 -0.8922 0.3846
vn -0.1188 -0.7983 0.5904
vn -0.5246 -0.8016 0.2866
vn -0.6042 -0.7851 0.1358
vn -0.4505 -0.8056 0.3847
vn -0.3527 -0.7117 0.6075
usemtl None
s 1
f 2//1 184//2 62//3
f 3//4 64//5 124//6
f 63//7 186//8 125//9
f 1//10 4//11 9//12 8//13
f 4//11 5//14 10//15 9//12
f 5//14 6//16 11//17 10//15
f 6//16 7//18 12//19 11//17
f 8//13 9//12 14//20 13//21
f 9//12 10//15 15//22 14//20
f 10//15 11//17 16//23 15//22
f 11//17 12//19 17//24 16//23
f 13//21 14//20 19//25 18//26
f 14//20 15//22 20//27 19//25
f 15//22 16//23 21//28 20//27
f 16//23 17//24 22//29 21//28
f 18//26 19//25 51//30 46//31
f 19//25 20//27 56//32 51//30
f 20//27 21//28 61//33 56//32
f 21//28 22//29 23//34 61//33
f 2//1 24//35 29//36 28//37
f 24//35 25//38 30//39 29//36
f 25//38 26//40 31//41 30//39
f 26//40 27//42 32//43 31//41
f 28//37 29//36 34//44 33//45
f 29//36 30//39 35//46 34//44
f 30//39 31//41 36//47 35//46
f 31//41 32//43 37//48 36//47
f 33//45 34//44 39//49 38//50
f 34//44 35//46 40//51 39//49
f 35//46 36//47 41//52 40//51
f 36//47 37//48 42//53 41//52
f 38//50 39//49 12//19 7//18
f 39//49 40//51 17//24 12//19
f 40//51 41//52 22//29 17//24
f 41//52 42//53 23//34 22//29
f 3//4 43//54 48//55 47//56
f 43//54 44//57 49//58 48//55
f 44//57 45//59 50//60 49//58
f 45//59 46//31 51//30 50//60
f 47//56 48//55 53//61 52//62
f 48//55 49//58 54//63 53//61
f 49//58 50//60 55//64 54//63
f 50//60 51//30 56//32 55//64
f 52//62 53//61 58//65 57//66
f 53//61 54//63 59//67 58//65
f 54//63 55//64 60//68 59//67
f 55//64 56//32 61//33 60//68
f 57//66 58//65 32//43 27//42
f 58//65 59//67 37//48 32//43
f 59//67 60//68 42//53 37//48
f 60//68 61//33 23//34 42//53
f 62//3 65//69 70//70 69//71
f 65//69 66//72 71//73 70//70
f 66//72 67//74 72//75 71//73
f 67//74 68//76 73//77 72//75
f 69//71 70//70 75//78 74//79
f 70//70 71//73 76//80 75//78
f 71//73 72//75 77//81 76//80
f 72//75 73//77 78//82 77//81
f 74//79 75//78 80//83 79//84
f 75//78 76//80 81//85 80//83
f 76//80 77//81 82//86 81//85
f 77//81 78//82 83//87 82//86
f 79//84 80//83 112//88 107//89
f 80//83 81//85 117//90 112//88
f 81//85 82//86 122//91 117//90
f 82//86 83//87 84//92 122//91
f 63//7 85//93 90//94 89//95
f 85//93 86//96 91//97 90//94
f 86//96 87//98 92//99 91//97
f 87//98 88//100 93//101 92//99
f 89//95 90//94 95//102 94//103
f 90//94 91//97 96//104 95//102
f 91//97 92//99 97//105 96//104
f 92//99 93//101 98//106 97//105
f 94//103 95//102 100//107 99//108
f 95//102 96//104 101//109 100//107
f 96//104 97//105 102//110 101//109
f 97//105 98//106 103//111 102//110
f 99//108 100//107 73//77 68//76
f 100//107 101//109 78//82 73//77
f 101//109 102//110 83//87 78//82
f 102//110 103//111 84//92 83//87
f 64//5 104//112 109//113 108//114
f 104//112 105//115 110//116 109//113
f 105//115 106//117 111//118 110//116
f 106//117 107//89 112//88 111//118
f 108//114 109//113 114//119 113//120
f 109//113 110//116 115//121 114//119
f 110//116 111//118 116//122 115//121
f 111//118 112//88 117//90 116//122
f 113//120 114//119 119//123 118//124
f 114//119 115//121 120//125 119//123
f 115//121 116//122 121//126 120//125
f 116//122 117//90 122//91 121//126
f 118//124 119//123 93//101 88//100
f 119//123 120//125 98//106 93//101
f 120//125 121//126 103//111 98//106
f 121//126 122//91 84//92 103//111
f 123//127 126//128 131//129 130//130
f 126//128 127//131 132//132 131//129
f 127//131 128//133 133//134 132//132
f 128//133 129//135 134//136 133//134
f 130//130 131//129 136//137 135//138
f 131//129 132//132 137//139 136//137
f 132//132 133//134 138//140 137//139
f 133//134 134//136 139//141 138//140
f 135//138 136//137 141//142 140//143
f 136//137 137//139 142//144 141//142
f 137//139 138//140 143//145 142//144
f 138//140 139//141 144//146 143//145
f 140//143 141//142 173//147 168//148
f 141//142 142//144 178//149 173//147
f 142//144 143//145 183//150 178//149
f 143//145 144//146 145//151 183//150
f 124//6 146//152 151//153 150//154
f 146//152 147//155 152//156 151//153
f 147//155 148//157 153//158 152//156
f 148//157 149//159 154//160 153//158
f 150//154 151//153 156//161 155//162
f 151//153 152//156 157//163 156//161
f 152//156 153//158 158//164 157//163
f 153//158 154//160 159//165 158//164
f 155//162 156//161 161//166 160//167
f 156//161 157//163 162//168 161//166
f 157//163 158//164 163//169 162//168
f 158//164 159//165 164//170 163//169
f 160//167 161//166 134//136 129//135
f 161//166 162//168 139//141 134//136
f 162//168 163//169 144//146 139//141
f 163//169 164//170 145//151 144//146
f 125//9 165//171 170//172 169//173
f 165//171 166//174 171//175 170//172
f 166//174 167//176 172//177 171//175
f 167//176 168//148 173//147 172//177
f 169//173 170//172 175//178 174//179
f 170//172 171//175 176//180 175//178
f 171//175 172//177 177//181 176//180
f 172//177 173//147 178//149 177//181
f 174//179 175//178 180//182 179//183
f 175//178 176//180 181//184 180//182
f 176//180 177//181 182//185 181//184
f 177//181 178//149 183//150 182//185
f 179//183 180//182 154//160 149//159
f 180//182 181//184 159//165 154//160
f 181//184 182//185 164//170 159//165
f 182//185 183//150 145//151 164//170
f 184//2 187//186 192//187 191//188
f 187//186 188//189 193//190 192//187
f 188//189 189//191 194//192 193//190
f 189//191 190//193 195//194 194//192
f 191//188 192//187 197//195 196//196
f 192//187 193//190 198//197 197//195
f 193//190 194//192 199//198 198//197
f 194//192 195//194 200//199 199//198
f 196//196 197//195 202//200 201//201
f 197//195 198//197 203//202 202//200
f 198//197 199//198 204//203 203//202
f 199//198 200//199 205//204 204//203
f 201//201 202//200 234//205 229//206
f 202//200 203//202 239//207 234//205
f 203//202 204//203 244//208 239//207
f 204//203 205//204 206//209 244//208
f 185//210 207//211 212//212 211//213
f 207//211 208//214 213//215 212//212
f 208//214 209//216 214//217 213//215
f 209//216 210//218 215//219 214//217
f 211//213 212//212 217//220 216//221
f 212//212 213//215 218//222 217//220
f 213//215 214//217 219//223 218//222
f 214//217 215//219 220//224 219//223
f 216//221 217//220 222//225 221//226
f 217//220 218//222 223//227 222//225
f 218//222 219//223 224//228 223//227
f 219//223 220//224 225//229 224//228
f 221//226 222//225 195//194 190//193
f 222//225 223//227 200//199 195//194
f 223//227 224//228 205//204 200//199
f 224//228 225//229 206//209 205//204
f 186//8 226//230 231//231 230//232
f 226//230 227//233 232//234 231//231
f 227//233 228//235 233//236 232//234
f 228//235 229//206 234//205 233//236
f 230//232 231//231 236//237 235//238
f 231//231 232//234 237//239 236//237
f 232//234 233//236 238//240 237//239
f 233//236 234//205 239//207 238//240
f 235//238 236//237 241//241 240//242
f 236//237 237//239 242//243 241//241
f 237//239 238//240 243//244 242//243
f 238//240 239//207 244//208 243//244
f 240//242 241//241 215//219 210//218
f 241//241 242//243 220//224 215//219
f 242//243 243//244 225//229 220//224
f 243//244 244//208 206//209 225//229
f 3//4 124//6 150//154 43//54
f 43//54 150//154 155//162 44//57
f 44//57 155//162 160//167 45//59
f 45//59 160//167 129//135 46//31
f 46//31 129//135 128//133 18//26
f 18//26 128//133 127//131 13//21
f 13//21 127//131 126//128 8//13
f 8//13 126//128 123//127 1//10
f 2//1 62//3 69//71 24//35
f 24//35 69//71 74//79 25//38
f 25//38 74//79 79//84 26//40
f 26//40 79//84 107//89 27//42
f 27//42 107//89 106//117 57//66
f 57//66 106//117 105//115 52//62
f 52//62 105//115 104//112 47//56
f 47//56 104//112 64//5 3//4
f 63//7 125//9 169//173 85//93
f 85//93 169//173 174//179 86//96
f 86//96 174//179 179//183 87//98
f 87//98 179//183 149//159 88//100
f 88//100 149//159 148//157 118//124
f 118//124 148//157 147//155 113//120
f 113//120 147//155 146//152 108//114
f 108//114 146//152 124//6 64//5
f 1//10 185//210 211//213 4//11
f 4//11 211//213 216//221 5//14
f 5//14 216//221 221//226 6//16
f 6//16 221//226 190//193 7//18
f 7//18 190//193 189//191 38//50
f 38//50 189//191 188//189 33//45
f 33//45 188//189 187//186 28//37
f 28//37 187//186 184//2 2//1
f 125//9 186//8 230//232 165//171
f 165//171 230//232 235//238 166//174
f 166//174 235//238 240//242 167//176
f 167//176 240//242 210//218 168//148
f 168//148 210//218 209//216 140//143
f 140//143 209//216 208//214 135//138
f 135//138 208//214 207//211 130//130
f 130//130 207//211 185//210 123//127
f 62//3 184//2 191//188 65//69
f 65//69 191//188 196//196 66//72
f 66//72 196//196 201//201 67//74
f 67//74 201//201 229//206 68//76
f 68//76 229//206 228//235 99//108
f 99//108 228//235 227//233 94//103
f 94//103 227//233 226//230 89//95
f 89//95 226//230 186//8 63//7
f 1//10 123//127 185//210
